<?xml version="1.0" encoding="UTF-8"?><svg id="Layer_2" xmlns="http://www.w3.org/2000/svg" viewBox="0 0 290 216.83"><defs><style>.cls-1{fill:#fff;}.cls-2{fill:none;stroke:#a52837;stroke-miterlimit:10;stroke-width:3.57px;}.cls-3{fill:#a52837;}</style></defs><g id="Layer_2_copy"><g><rect class="cls-1" x="145.43" width=".48" height="49.83"/><rect class="cls-1" x="145.91" y="49.83" width="144.09" height="65.28"/><rect class="cls-1" x="145.91" width="144.09" height="49.83"/><polygon class="cls-1" points="145.91 115.11 145.91 212.9 290 116.84 290 115.11 145.91 115.11"/><polygon class="cls-1" points="145.43 115.11 145.43 213.22 145.43 213.22 145.91 212.9 145.91 115.11 145.43 115.11"/><polygon class="cls-1" points="0 115.11 0 116.27 145.43 213.22 145.43 115.11 0 115.11"/><rect class="cls-1" width="145.43" height="49.83"/><rect class="cls-1" x="145.43" y="49.83" width=".48" height="65.28"/><rect class="cls-1" y="49.83" width="145.43" height="65.28"/><polygon class="cls-3" points="145.91 212.9 145.43 213.22 145.43 213.22 0 116.27 0 118.07 0 119.87 145.43 216.83 145.43 216.83 145.91 216.5 290 119.44 290 118.64 290 115.84 145.91 212.9"/></g></g><g id="Layer_1-2"><g><path class="cls-3" d="M158.54,34.48c-1.24-.09-9.28,.44-17.42,2.03-5.22,8.84-8.49,20.33-7.25,22.01,.44,.62-2.3-.09-3.09-1.5-1.06-1.77,2.12-10.87,6.9-19.71-7.07,1.68-13.44,4.24-14.32,7.87-.27,.97-2.39-1.59-1.33-3.62,2.83-5.48,29.26-10.7,36.51-9.72,.27,0,1.41,2.83,0,2.65Z"/><path class="cls-3" d="M158.62,49.42s-2.74,5.13-4.33,5.13c-1.15,0-2.74-1.06-3.62-2.65-.62-1.24,3.01-8.66,3.01-8.66-1.68,.97-6.63,9.02-7.34,10.79h0c-.97,.09-2.21-.8-3.09-2.21s5.92-16.8,7.16-18.65c.35-.44,3.01,.62,2.3,1.68-.53,.8-4.24,9.19-5.83,14.68,4.51-7.96,9.02-10.96,9.37-11.05,.35-.18,2.74,1.15,2.21,1.77-.62,.8-5.75,12.38-5.13,12.38,.71,0,5.04-4.95,5.04-4.95l.27,1.77Z"/><path class="cls-3" d="M169.85,43.68v2.03s-3.98,7.51-7.69,8.04c-1.24,.18-3.62-.62-4.77-3.27s3.54-10.79,6.45-10.96c1.15-.09,2.39,.88,2.56,1.24,1.41,2.65-2.48,9.11-3.98,9.19-1.33,.09-2.21-.88-2.56-1.5-.71,2.03-.62,3.71,.53,4.07,2.65,.62,9.46-8.84,9.46-8.84Zm-9.72,3.89c.27,.35,.53,.71,.8,.71,.71,0,3.71-4.86,3.71-6.72-1.77,1.06-3.54,3.62-4.51,6.01Z"/></g><g><path class="cls-3" d="M21.33,68.96h.62c.88,0,1.33,1.41,1.5,4.16,.09,1.15,.09,2.03,.09,2.56v.18c0,.09-.18,.35-.62,.71-.35,0-1.06-.62-2.3-1.94-1.94-.35-3.09-.62-3.45-.62h-.62c-.71,0-1.06,1.59-1.06,4.86,.8,.18,2.03,.35,3.89,.44,.97-.88,1.59-1.33,1.77-1.33,.35,0,.62,1.77,.8,5.3,0,.35-.27,.8-.8,1.15l-1.77-1.15h-.27c-2.39,.35-3.62,.71-3.62,1.06-.09,.18-.09,.44-.09,.71v3.45c0,.88,.53,1.41,1.5,1.5h2.21c1.86,0,3.27-.71,4.24-2.12l.53-.44c.27,.62,.35,1.41,.35,2.39v1.15c-.18,2.03-.62,3.09-1.24,3.09-1.33,0-2.83-.09-4.51-.18-5.22,.35-8.13,.62-8.84,.62-1.24-.09-1.77-.35-1.77-.71v-.35c0-.35,.44-1.06,1.41-2.21,.35,0,.71-2.83,1.06-8.58-.27-6.98-.62-10.52-1.06-10.52-1.24-.62-1.86-1.15-2.03-1.68v-.27c0-.27,.44-.53,1.24-.71,2.12,.18,3.27,.27,3.45,.27,5.39-.35,8.58-.53,9.37-.8Z"/><path class="cls-3" d="M30.97,69.14h7.16c.27,0,.8,.18,1.41,.44v.27c-.97,.88-1.41,1.59-1.41,2.12,0,.44,.09,1.33,.18,2.74-.35,4.24-.53,6.72-.53,7.34,0,4.95,.27,7.43,.88,7.43,.44,.18,1.5,.44,3.18,.62,1.15,0,2.74-.88,4.6-2.56h.44l.09,1.06v.62c-.27,3.45-.62,5.22-1.15,5.22-.18,.09-.35,.18-.71,.18-1.77,0-5.13,.09-10.26,.18-2.74-.18-4.07-.35-4.07-.62v-.44c0-.44,.53-1.41,1.59-2.74l.18-.88v-.27c0-.8-.27-5.39-.88-13.79v-2.56c0-.88-.53-1.77-1.59-2.74-.27-.35-.27-.53-.27-.8,.35-.53,.71-.8,1.15-.8Z"/><path class="cls-3" d="M66.59,68.96h.62c.88,0,1.33,1.41,1.5,4.16,.09,1.15,.09,2.03,.09,2.56v.18c0,.09-.18,.35-.62,.71-.35,0-1.06-.62-2.3-1.94-1.86-.35-3.01-.62-3.36-.62h-.62c-.71,0-1.06,1.59-1.06,4.86,.8,.18,2.03,.35,3.89,.44,.97-.88,1.59-1.33,1.77-1.33,.35,0,.62,1.77,.8,5.3,0,.35-.27,.8-.8,1.15l-1.77-1.15h-.27c-2.39,.35-3.62,.71-3.62,1.06-.09,.18-.09,.44-.09,.71v3.45c0,.88,.53,1.41,1.5,1.5h2.21c1.86,0,3.27-.71,4.24-2.12l.53-.44c.27,.62,.35,1.41,.35,2.39v1.15c-.18,2.03-.62,3.09-1.24,3.09-1.33,0-2.83-.09-4.51-.18-5.22,.35-8.13,.62-8.84,.62-1.24-.09-1.77-.35-1.77-.71v-.35c0-.35,.44-1.06,1.41-2.21,.35,0,.71-2.83,1.06-8.58-.27-6.98-.62-10.52-1.06-10.52-1.24-.62-1.86-1.15-2.03-1.68v-.27c0-.27,.44-.53,1.24-.71,2.12,.18,3.27,.27,3.45,.27,5.39-.35,8.49-.53,9.28-.8Z"/><path class="cls-3" d="M85.78,69.05h.18c.88,0,2.65,.27,5.22,.88h.35c.35,0,1.06-.27,2.21-.88,.71,1.68,1.06,3.45,1.06,5.39-.18,2.21-.35,3.27-.8,3.27-2.3-2.56-4.51-3.89-6.45-3.89-2.65,0-4.6,2.39-5.66,7.16-.09,.71-.18,1.24-.18,1.68v1.15c0,3.71,1.68,5.92,4.95,6.72h.35c1.86,0,3.89-1.15,6.1-3.45,.44-1.33,.8-1.94,1.06-1.94,.53,.18,.8,.62,.8,1.15v4.07c-.18,2.92-.44,4.33-.88,4.33-.8-.53-1.41-.71-1.68-.71-3.36,.18-5.75,.44-7.25,.71-1.94,0-4.16-1.15-6.63-3.45-1.86-3.18-2.83-6.01-2.83-8.66v-1.33c0-5.83,2.21-9.72,6.72-11.67,.88-.27,2.12-.53,3.36-.53Z"/><path class="cls-3" d="M108.85,69.14c3.54,.27,5.66,.44,6.37,.44,2.48-.18,4.07-.27,4.77-.27h.09c.53,.35,.8,.88,.8,1.68v5.3c0,.18-.09,.35-.27,.35h-.35c-.62,0-1.5-.8-2.74-2.48l-.88-.18c-1.5,.18-2.21,.44-2.21,.62l-.53,8.84c.18,6.01,.53,8.93,.88,8.93,.53,.71,.8,1.24,.8,1.5-.44,.44-.8,.71-1.06,.8-1.15-.18-2.21-.27-3.18-.27h-.27c-.97,0-2.56,.09-4.77,.27l-.09-.27c1.24-2.21,1.86-3.71,1.86-4.6-.09-2.21-.18-6.98-.27-14.41-.18-.44-.35-.71-.53-.8h-.88c-1.94,0-3.62,.97-5.13,2.92-.18-.35-.27-.8-.27-1.24,0-.97,.09-3.09,.18-6.19-.18-.44,2.39-.71,7.69-.97Z"/><path class="cls-3" d="M128.66,69.14c9.02,.44,13.53,.88,13.53,1.33,2.3,.88,3.36,2.74,3.36,5.57,.18,.44,.27,1.24,.27,2.39,0,1.06-1.06,2.56-3.27,4.33,.27,2.21,2.21,5.57,5.75,10.08v1.68c-6.1-.09-9.11-.44-9.11-1.06v-.18c0-.35,.35-1.15,1.15-2.39-.97-1.86-2.65-3.8-4.95-5.83-.71,.62-1.06,1.59-1.06,2.83v3.18c0,.53,.44,1.33,1.41,2.3v.62c0,.44-.71,.71-2.12,.71h-2.65c-.88,0-2.21-.09-3.89-.18l-.27-.44v-.27c0-.27,.35-1.33,1.15-3.27,.18-.44,.27-1.06,.27-1.94v-9.46c0-.97,.09-2.21,.18-3.62,0-1.41-.71-2.83-2.21-4.24v-.88c.62-.8,1.41-1.24,2.48-1.24Zm4.86,5.48c0,1.41,.09,3.27,.27,5.39h.09c2.83-.8,4.16-2.12,4.16-3.89-.27-1.41-1.06-2.12-2.65-2.12h-.88c-.62,0-.97,.18-.97,.62Z"/><path class="cls-3" d="M163.13,69.14h.53c.18,0,.27,.18,.27,.27v.27c0,.44-.44,1.15-1.41,2.3-.09,.53-.09,.97-.09,1.24,0,12.73,.35,19.18,1.15,19.18,.44,.8,.71,1.33,.71,1.68-.18,.44-.44,.62-.88,.62h-6.72c-.97,0-1.41-.18-1.41-.44v-.44l1.41-3.54v-.18c0-1.94-.18-6.37-.53-13.35,.09-1.15,.09-2.48,.09-3.98,0-.18-.62-1.06-1.94-2.74v-.27c0-.18,.27-.35,.8-.44,1.77,.09,2.92,.18,3.54,.18,2.12-.27,3.71-.35,4.51-.35Z"/><path class="cls-3" d="M180.99,69.05h.18c.88,0,2.65,.27,5.22,.88h.35c.35,0,1.06-.27,2.21-.88,.71,1.68,1.06,3.45,1.06,5.39-.18,2.21-.35,3.27-.8,3.27-2.3-2.56-4.51-3.89-6.45-3.89-2.65,0-4.6,2.39-5.66,7.16-.09,.71-.18,1.24-.18,1.68v1.15c0,3.71,1.68,5.92,4.95,6.72h.35c1.86,0,3.89-1.15,6.1-3.45,.44-1.33,.8-1.94,1.06-1.94,.53,.18,.8,.62,.8,1.15v4.07c-.18,2.92-.44,4.33-.88,4.33-.8-.53-1.41-.71-1.68-.71-3.36,.18-5.75,.44-7.25,.71-1.94,0-4.16-1.15-6.63-3.45-1.86-3.18-2.83-6.01-2.83-8.66v-1.33c0-5.83,2.21-9.72,6.72-11.67,.88-.27,2.03-.53,3.36-.53Z"/><path class="cls-3" d="M205.39,69.14h.53c.18,0,.27,.18,.27,.27v.27c0,.44-.44,1.15-1.41,2.3-.09,.53-.09,.97-.09,1.24,0,12.73,.35,19.18,1.15,19.18,.44,.8,.71,1.33,.71,1.68-.18,.44-.44,.62-.88,.62h-6.72c-.97,0-1.41-.18-1.41-.44v-.44l1.41-3.54v-.18c0-1.94-.18-6.37-.53-13.35,.09-1.15,.09-2.48,.09-3.98,0-.18-.62-1.06-1.94-2.74v-.27c0-.18,.27-.35,.8-.44,1.77,.09,2.92,.18,3.54,.18,2.12-.27,3.62-.35,4.51-.35Z"/><path class="cls-3" d="M217.94,69.14c5.13,.09,8.84,.35,10.87,.62v.27c-.88,1.15-1.33,1.77-1.33,1.86v.62c.09,2.56,2.12,8.93,6.19,19.01,.88,.8,1.33,1.33,1.33,1.59,0,.62-.53,.97-1.5,1.06h-7.25c-.09,0-.27-.18-.44-.44,.62-1.5,.97-2.39,.97-2.65v-.18c0-1.59-.62-2.39-1.86-2.39h-1.86c-3.18,0-4.86,.8-4.86,2.48v.27c0,.62,.27,1.41,.8,2.39-.53,.44-2.12,.62-4.69,.62h-1.33l-1.33,.18-.18-.35c0-.62,.88-1.77,2.65-3.54,2.12-7.51,3.89-13.79,5.13-19.1-.97-.62-1.5-1.41-1.5-2.39q.18,.27,.18,.09Zm4.33,10.34l-1.24,3.89c.18,.53,.53,.8,1.06,.8h.8c.44,0,.8-.18,.97-.62-.09-.88-.53-2.21-1.5-4.07,0,0-.09,0-.09,0Z"/><path class="cls-3" d="M239.96,69.14h.53c0,.27,2.39,.71,7.16,1.15,0,.09,0,.18,.09,.18-.18,.44-.62,1.15-1.15,2.12,2.65,3.54,5.3,6.54,8.22,9.02h.27c0-.35,0-1.59,.09-3.71,0-4.24-.53-6.72-1.68-7.6v-.27c.8-.44,2.03-.62,3.8-.62h.53c2.12,0,3.62,.27,4.51,.71-1.15,1.77-1.68,3.01-1.68,3.62-.27,7.69-.44,12.38-.44,14.06,0,1.5,.71,3.27,2.12,5.22v.27c-.27,.8-2.12,1.15-5.48,1.15h-2.56c-.44-.27-.71-.62-.71-1.15,0-.18,.44-.8,1.33-1.77-.8-.71-3.36-3.71-7.69-9.11-.09,0-.53-.27-1.41-.88l-.18,.27v2.12c0,5.22,.62,8.49,1.86,9.72v.27c-.44,.62-1.77,.88-3.8,.88h-.62c-1.94-.09-3.09-.35-3.27-.88v-.18c0-.35,.53-2.03,1.59-5.13l.27-2.39c-.27-9.19-.8-13.79-1.59-13.79-.8-.97-1.15-1.77-1.15-2.21v-.27c.27-.53,.62-.8,1.06-.8Z"/><path class="cls-3" d="M274.26,69.14h.97c.44,0,1.77,.18,4.07,.53h1.24c.27,0,.88-.09,1.77-.27,.18,0,.44,2.21,.62,6.72-.18,.62-.44,.88-.8,.88-.18,0-.97-.97-2.48-2.74-1.15-.44-2.3-.71-3.45-.71h-.8c-1.68,.18-2.48,.8-2.48,1.86v.53c0,1.33,1.68,2.3,5.04,3.09,3.36,1.59,5.3,3.09,5.83,4.51,.44,1.77,.62,3.01,.62,3.8v.88c0,2.3-2.03,4.42-6.19,6.54h-.09c-.88,0-3.45-.35-7.69-1.15-1.41,.44-2.21,.71-2.56,.71-.62-2.21-.88-4.6-.88-6.98v-.88c0-.71,.18-1.24,.62-1.41h.09c.44,0,1.15,.8,2.03,2.3,2.92,2.21,5.13,3.36,6.54,3.36,1.86-.44,2.74-1.24,2.74-2.21v-.35c-.53-2.39-1.59-3.62-3.18-3.62-5.13-1.06-7.69-2.56-7.69-4.69-.53-.97-.8-2.21-.8-3.62,0-1.33,.8-3.09,2.48-5.57,1.68-.97,3.01-1.5,4.42-1.5Z"/></g><path d="M71.72,54.9c6.01-4.42,12.11-8.66,18.21-13,6.1-4.33,12.2-8.58,18.3-12.82,12.2-8.49,24.49-16.97,36.87-25.37l.53-.44,.71,.44,18.83,12.91c6.28,4.33,12.55,8.66,18.83,13s12.47,8.75,18.74,13.08c6.19,4.42,12.47,8.84,18.57,13.35-6.45-4.07-12.82-8.22-19.27-12.38-6.37-4.16-12.73-8.31-19.1-12.55-6.37-4.16-12.64-8.49-19.01-12.64l-18.92-12.82h1.33c-12.38,8.31-24.67,16.71-37.13,24.84-6.19,4.16-12.47,8.22-18.65,12.29-6.37,4.07-12.55,8.13-18.83,12.11Z"/><path d="M225.81,109.8c-4.6,3.36-9.28,6.45-14.06,9.55-4.77,3.09-9.55,6.01-14.41,9.02l-7.25,4.33c-2.48,1.41-4.86,2.83-7.34,4.24-4.95,2.74-9.9,5.48-14.94,8.04,4.6-3.36,9.28-6.45,14.06-9.55,2.39-1.59,4.77-3.01,7.16-4.51l7.25-4.42c4.86-2.92,9.72-5.75,14.68-8.58,4.86-2.92,9.81-5.66,14.85-8.13Z"/><path d="M65,109.8c5.04,2.56,10.08,5.22,14.94,8.04,4.95,2.74,9.81,5.66,14.68,8.58l7.25,4.42c2.39,1.5,4.77,3.01,7.16,4.51,4.77,3.09,9.46,6.19,14.06,9.55-5.04-2.56-10.08-5.22-14.94-8.04-2.48-1.41-4.86-2.83-7.34-4.24l-7.25-4.33c-4.86-2.92-9.64-5.92-14.41-9.02-4.86-3.01-9.55-6.1-14.14-9.46Z"/><path class="cls-2" d="M146.51,130.76s3.71-18.03-14.5-18.92c-18.21-.88-14.59,3.98-11.14,4.95,3.8,1.15,37.31-.62,36.69-17.33"/><g id="bBbXRd"><g><path class="cls-3" d="M148.55,130.05c0,.53,.18,.8,.71,.88,1.5,.27,1.86,.62,1.86,2.21v10.08c0,1.06,.35,1.94,1.06,2.83,.62,.8,1.06,1.68,1.33,2.65,1.15,4.33,2.21,8.66,3.18,13.08,.18,.62,.35,.97,.97,.88,.71,0,.97,.44,.97,1.06v4.07c0,.71-.09,1.5,0,2.21,.09,.8,0,1.41-1.06,1.41-.09,0-.35,.35-.35,.53,.09,1.15-.62,1.59-1.5,1.77-.71,.18-.88,.53-.88,1.24,.09,2.92,0,5.75,0,8.66,0,.35,0,.8-.09,1.15-.09,.88-.8,1.5-1.59,1.5-.88,0-1.68-.71-1.68-1.59-.09-2.21,0-4.42-.09-6.72v-3.27c-.97,.09-1.86,.18-2.74,.27-1.15,.09-1.33,0-1.41-1.24,0-.35-.18-.88-.27-.88-.62-.09-1.24-.09-1.86,0-.09,0-.18,.62-.18,.97,0,1.15-.09,1.15-1.15,1.15-1.15-.09-2.21-.18-3.45-.27,0,.18-.09,.44-.09,.62v8.84c0,1.5-1.15,2.48-2.39,1.94-.35-.18-.71-.62-.8-.97-.18-.71-.18-1.5-.18-2.21,0-2.74,0-5.57,.09-8.31,0-.53-.18-.8-.71-.97-.88-.27-1.5-.62-1.33-1.68,0-.18-.27-.44-.53-.53-.35-.09-.71-.09-1.24-.09v-5.92c0-.44,.09-.8,.09-1.24q0-1.24,1.15-1.5c.27-.09,.53-.35,.53-.62,1.24-4.69,2.39-9.37,3.62-14.06,.27-.97,1.06-1.86,1.59-2.74,.27-.44,.53-.97,.53-1.5,.09-3.18,.09-6.37,.09-9.55v-.35c0-2.12,.18-2.39,2.3-2.74q1.15-.18,.97-1.33m10.17,50.39c.09-.18,.18-.27,.27-.44-.18-.09-.27-.18-.44-.18-.53,.09-1.06,.27-1.59,.44v.18h1.77c-.53,.09-1.06,.27-1.59,.35v.18h1.68c-.53,.18-1.06,.27-1.59,.44,.35,.09,.71,.18,1.06,.27-.35,.09-.71,.18-.97,.27v.18c.35,0,.71,.09,1.06,.09-.44,.09-.8,.18-1.33,.35,.44,.09,.71,.18,.97,.27v.09c-.35,0-.71,.09-1.06,.09v.18h1.77c-.53,.18-1.06,.27-1.68,.44,.27,.09,.53,.18,1.06,.35-.53,.09-.8,.09-1.06,.09v.18c.44,0,.97,.09,1.41,.09-.53,.09-1.06,.18-1.68,.27,.44,.18,.71,.27,1.33,.53-.44,.09-.62,.09-1.06,.09,.62,.18,1.06,.44,1.41,.27,.35-.09,.44-.62,.71-1.15h-.71c.71-.35,.8-.62,.35-1.24,.35-.44,.35-1.77,.09-2.3-.18,0-.18-.18-.18-.35Zm-14.59,3.89c.53-.88,.27-1.86,.27-2.83-.62,.18-1.15,.27-1.77,.44,.27,.09,.53,.18,.8,.27v.09c-.27,0-.62,.09-.88,.09v.09c.27,.09,.44,.18,.88,.27-.44,.09-.71,.09-.97,.18v.18c.35,.09,.71,.18,1.15,.18v.09c-.35,0-.71,.09-1.33,.18,.53,.18,.88,.27,1.33,.44-.53,.09-.88,.09-1.15,.09v.18c.53,.09,1.15,.09,1.68,.09-.53,.18-.97,.27-1.59,.44,.35,.09,.62,.18,.88,.27-.27,.09-.44,.09-.62,.09v.27c.35,0,.8,0,1.15-.09,.62-.18,.62-.53,.18-.97Zm6.81-51.98l.18-.09c0-.62,.09-1.24,.09-1.86,.09,.09,.09,.27,.09,.35q.18,1.68,1.77,1.86c.09,0,.18,0,.18,.09-.88,.09-1.59,.09-2.39,0-.53-.09-.97-.18-1.5-.27-.97-.27-1.94-.44-2.92,0v.27h2.65v.18c-.62,.09-1.33,.18-1.94,.18v.27c.97,.18,1.94,.35,2.92,.44v.09h-2.92v.27c1.06,.18,2.21,.27,3.27,.44v.18h-3.01v.27c1.24,.09,2.48,.27,3.71,.35v.18h-3.71v.27c1.15,.18,2.3,.27,3.45,.44v.18h-3.27v.27c1.33,.09,2.65,.18,3.98,.35v.09c-1.33,.09-2.65,.09-4.07,.18v.18c1.33,.09,2.65,.27,3.71,.35-.09,0-.35,.09-.62,.27,0,.09,0,.18,.09,.27,1.41,0,2.92,.09,4.24-.71,.18-.09,.27-.44,.27-.62v-3.8c0-1.41-.97-1.68-2.21-1.15,.35,.09,.62,.09,.97,.18q-1.68,.09-1.77-.18c.09,0,.27,.09,.44,0,.09,0,.09-.27,.09-.35,0-.18-.18-.35-.18-.62-.09-.88-.09-1.77-.27-2.56m-2.12,2.12c.09,.44,.09,.97,.18,1.41m-1.5,36.51c-2.56,.27-5.04-.18-7.51-.53,1.24,.35,2.48,.62,3.71,.8s2.48,.35,3.62,.53c0,.09,0,.27-.09,.35-2.56-.35-5.04-.62-7.6-.97,2.48,.88,5.13,.97,7.69,1.5-2.56,.09-5.13-.27-7.6-.8,2.65,.97,5.39,1.15,8.22,1.5v-4.6c0-.53-.09-.97-.62-1.24-.18-.09-.27-.35-.35-.53,1.33,.27,1.24,1.41,1.33,2.39,.44-.35,.71-.71,1.15-1.06-.18-.09-.27-.18-.44-.27,.44-.09,.88-.27,1.5-.44-.62-.18-.97-.27-1.41-.35v-.09c.53-.09,1.06-.09,1.5-.18v-.18c-.53-.09-1.06-.27-1.68-.35v-.09c.88-.09,1.68-.09,2.48-.09,.18,.71,.27,1.24-.44,1.59-.35,.18-.09,1.33,.35,1.5v.09c-.18,.18-.35,.27-.71,.62,.62,.09,.97,.18,1.15,.18-.18,.09-.53,.35-.88,.53,.35,.18,.71,.27,.88,.35-.18,.09-.62,.27-.97,.35v.27c.44,.09,.88,.09,1.15,.18-.35,.09-.71,.18-.97,.27v1.33h1.41c-.71,.18-1.15,.35-1.59,.44v.27c.18,.09,.44,.27,.62,.35-.18,.09-.44,.27-.71,.35,.27,.18,.35,.35,.53,.44-.18,.18-.35,.27-.53,.44,.09,0,.18,.09,.27,.09,0,.27,0,.62-.09,.97,.27,0,.62,.09,.88,.09,2.48-.44,4.86-.88,7.34-1.33,.27-.09,.53-.53,.71-.88,.09-.27,0-.53,0-.8-.09-3.36,.35-6.72-.53-9.99-1.15-4.42-2.12-8.84-3.27-13.17-.27-.97-.97-1.77-1.41-2.65-.09,0-.18,.09-.27,.09,0,.88-.09,1.77,0,2.65,.09,.8-.27,1.06-.97,1.06-1.06,0-2.12,0-3.18-.09-2.12-.09-4.24-.18-6.37-.27-.09,0-.18,.18-.44,.44,3.71,0,7.34,0,10.96,.09-1.86,.09-3.71,0-5.57,.09s-3.62,0-5.48,.27v.35c3.71,0,7.43,0,11.14,.09-.27,.18-.62,.09-.88,.09-3.09,0-6.28,.09-9.37,.09-.35,0-.71,.18-1.06,.27,0,.09,0,.27,.09,.35,3.71,.35,7.51-.35,11.23,.09-.44,.09-.88,.09-1.41,.09-3.01,0-6.01,.09-9.11,.09-.35,0-.71,.18-1.06,.27v.27c3.98,0,8.04,.09,12.02,.09-.18,.09-.35,.09-.44,.09-3.54,0-7.07,.09-10.61,.09-.35,0-.8,.18-1.15,.27v.27c3.8,0,7.6,0,11.49,.09v.27c-3.45,0-6.98-.09-10.43-.09-.44,0-.88,.18-1.24,.18v.27c4.16,0,8.31,.09,12.47,.09-3.8,.18-7.51,.18-11.32,.27-.44,0-.88,.18-1.33,.27,0,.09,0,.18,.09,.27h12.73v.18h-2.83c-3.01,.09-6.1,.09-9.11,.18-.35,0-.62,.09-.97,.18v.35c4.42-.09,8.84-.09,13.26-.18v.27c-4.24,.09-8.49,.09-12.73,.18-.35,0-.71,.18-1.06,.18v.27c4.24,0,8.58,.09,12.82,.09-.35,.09-.71,.09-1.15,.09-3.62,.09-7.16,.09-10.79,.18-.35,0-.71,.18-1.06,.27,0,.09,0,.18,.09,.27,.88,.09,1.86,.18,2.56,.18-.88,.09-1.94,.27-2.92,.35v.35c4.95-.09,9.9-.09,14.85-.18v.27h-1.33c-4.24,.09-8.4,.09-12.64,.18-.44,0-.8,.18-1.24,.27v.18c5.13,0,10.17,.09,15.29,.09-.27,.09-.53,.18-.8,.18h-2.83c-3.62,.09-7.16,.09-10.79,.18-.35,0-.62,.18-.97,.27,0,.09,.09,.27,.09,.35,5.04-.09,10.17-.18,15.21-.18-.53,.18-1.15,.18-1.68,.18-3.18,.09-6.28,.18-9.46,.09-1.94,0-3.8,.44-5.75-.09,.53,.27,.97,.53,1.68,.88-.27,.18-.53,.27-.71,.44,0,.09,.09,.18,.09,.35,5.48-.09,10.96-.18,16.44-.27-.35,.18-.71,.27-1.06,.27-4.69,.09-9.37,.09-13.97,.18-.53,0-1.15,.18-1.68,.27v.35c5.48-.09,10.87-.09,16.36-.18-.88,.18-1.68,.27-2.56,.27-4.33,0-8.75,.09-13.08,.09-.27,0-.53,.18-.88,.27v.35h3.71v.18c-1.24,.09-2.39,.09-3.62,.18v.35c2.65,.18,5.22-.62,7.87-.53h-1.59v-.09c3.89,.27,7.69,.62,11.67,.88,.09-.09,.18-.27,.35-.53-.18,.88-.27,.88-1.41,.8-3.01-.27-6.01-.44-9.02-.62-1.06-.09-2.12,.18-3.27,.27-1.24,.09-2.48,.18-3.71,.35-.53,.09-.97,.27-1.5,0-.35-.18-1.24,.09-1.5,.44-.27,.44,.27,.88,.8,1.06,.88,.27,1.77,.62,2.65,.71,1.77,.27,3.54,.53,5.3,.8v.18c-1.41-.09-2.83-.18-4.24-.35-1.33-.18-2.74-.53-4.07-.8,2.65,1.24,5.66,1.24,8.49,1.86v.27c-2.48-.27-4.95-.62-7.43-.88,3.09,.62,5.66,.71,8.22,1.15Zm-2.3-20.95c0,.09,0,.27-.09,.35,.35,.09,.71,.27,1.15,.27h5.48c.71,0,1.33-.09,1.86,.62,.09,.09,.35,.09,.62,.18v-1.94c0-2.39-.09-2.39-2.48-2.3-1.68,.09-3.27,0-4.95,0h-2.3c0,.09-.09,.27-.09,.35,.27,.27,.8,.53,.88,.8,.09,.97,.71,.71,1.33,.8h6.01v.27h-7.16v.44c2.48,.35,5.04-.09,7.51,.09v.27c-2.65-.18-5.22-.18-7.78-.18Zm2.74,23.78c-3.01-.35-5.75-.71-8.58-1.06v.18c2.65,.44,5.3,.88,8.04,1.33v.18c-1.94-.18-3.8-.35-5.75-.53v.18c1.86,.27,3.71,.62,5.57,.88-2.65,.18-5.22-.27-7.78-.8,0,.09,0,.18-.09,.27,2.65,.44,5.22,.88,7.87,1.33v.27c-2.39-.27-4.69-.53-7.07-.8v.18c2.56,.44,5.13,.88,7.78,1.33,0-.27,.09-.53,.09-.8-.09-.62-.09-1.41-.09-2.12Zm-1.86-27.58c.18,.09,.27,.18,.27,.18,2.12,.44,4.33,.53,6.54,.18,.27,0,.53-.09,.71-.27s.35-.53,.35-.8c0-.18-.35-.35-.62-.35-.44,0-.88,.09-1.41,.18-.88,.18-1.77,.53-2.65,.62-.97,.18-2.03,.18-3.18,.27Zm3.8-4.16v.18h-3.62v.27c1.94,0,3.98,.09,5.92,0,.53,0,.97-.27,1.5-.44,.18-.09,.27-.35,.27-.53s-.27-.44-.44-.44c-.44,0-.97,.09-1.41,.18-1.33,.27-2.56,.8-3.89,.62,0,0-.09,0-.18,.09,.71,.09,1.24,.09,1.86,.09Zm-3.62,2.3c2.48,.53,4.95,.71,7.43-.27,.18-.09,.27-.44,.44-.8-1.5,.27-2.74,.53-4.07,.71-1.24,.18-2.56,.27-3.8,.35Zm15.03,23.07c.09-.35,.27-.62,.27-.88-.09-.71-.53-1.15-1.33-1.06v.97c.27,.09,.53,.09,1.06,.18-.44,.09-.71,.09-.97,.18,.09,.71,.09,1.41,.18,2.12h1.15c-.18-.62,.35-1.24-.35-1.5Zm-5.75,10.7c.53,.09,.88,.18,1.33,.35-.44,.09-.71,.18-.97,.27v.18c.35,0,.8,.09,1.15,.09v.09c-.44,.09-.97,.09-1.5,.18,1.94,.62,2.3,.35,2.03-1.41-.62,0-1.24,.18-2.03,.27Zm4.69-6.9c1.24,.18,1.33,.18,1.33-.88v-1.41c-.44,.18-.8,.27-1.24,.35,.27,.18,.44,.27,.53,.35-.09,.09-.35,.27-.62,.44,.18,.18,.27,.35,.44,.44,0,.27-.18,.44-.44,.71Zm1.24,2.21c0-.71,.09-1.24,.09-2.03-.53,.09-.88,.18-1.24,.27,.18,.18,.27,.44,.44,.53l-.44,.44c.18,.18,.35,.27,.44,.35-.09,.09-.27,.18-.62,.44h1.33Zm-12.38-32.71v-.27h-2.48v.18c.8,0,1.68,0,2.48,.09Zm8.58,40.49c-.71,.09-1.33,.18-2.03,.27,.71,.27,1.41,.44,2.03-.27Z"/><path class="cls-3" d="M138.73,160.11c4.42,0,8.75,.09,13.17,.09v.09c-4.42-.09-8.84-.09-13.17-.18h0Z"/><path class="cls-3" d="M152.7,156.92h-7.25v-.09h7.25v.09Z"/><path class="cls-3" d="M150.05,162.67h-3.36c1.15-.09,2.21-.09,3.36,0q0-.09,0,0Z"/></g></g></g></svg>