<?xml version="1.0" encoding="utf-8"?>
<!-- Generator: Adobe Illustrator 25.2.1, SVG Export Plug-In . SVG Version: 6.00 Build 0)  -->
<svg version="1.1" id="Layer_1" xmlns="http://www.w3.org/2000/svg" xmlns:xlink="http://www.w3.org/1999/xlink" x="0px" y="0px"
	 viewBox="0 0 332.8 231.9" style="enable-background:new 0 0 332.8 231.9;" xml:space="preserve">
<style type="text/css">
	.st0{fill:#FFFFFF;}
	.st1{fill:none;stroke:#FFFFFF;stroke-width:3.5718;stroke-miterlimit:10;}
</style>
<g>
	<path class="st0" d="M181.6,53.3c-1.4-0.1-10.5,0.5-19.7,2.3c-5.9,10-9.6,23-8.2,24.9c0.5,0.7-2.6-0.1-3.5-1.7
		c-1.2-2,2.4-12.3,7.8-22.3c-8,1.9-15.2,4.8-16.2,8.9c-0.3,1.1-2.7-1.8-1.5-4.1c3.2-6.2,33.1-12.1,41.3-11
		C181.9,50.3,183.2,53.5,181.6,53.3z"/>
	<path class="st0" d="M181.7,70.2c0,0-3.1,5.8-4.9,5.8c-1.3,0-3.1-1.2-4.1-3c-0.7-1.4,3.4-9.8,3.4-9.8c-1.9,1.1-7.5,10.2-8.3,12.2
		c0,0,0,0,0,0c-1.1,0.1-2.5-0.9-3.5-2.5s6.7-19,8.1-21.1c0.4-0.5,3.4,0.7,2.6,1.9c-0.6,0.9-4.8,10.4-6.6,16.6
		c5.1-9,10.2-12.4,10.6-12.5c0.4-0.2,3.1,1.3,2.5,2c-0.7,0.9-6.5,14-5.8,14c0.8,0,5.7-5.6,5.7-5.6L181.7,70.2z"/>
	<path class="st0" d="M194.4,63.7v2.3c0,0-4.5,8.5-8.7,9.1c-1.4,0.2-4.1-0.7-5.4-3.7s4-12.2,7.3-12.4c1.3-0.1,2.7,1,2.9,1.4
		c1.6,3-2.8,10.3-4.5,10.4c-1.5,0.1-2.5-1-2.9-1.7c-0.8,2.3-0.7,4.2,0.6,4.6C186.7,74.4,194.4,63.7,194.4,63.7z M183.4,68.1
		c0.3,0.4,0.6,0.8,0.9,0.8c0.8,0,4.2-5.5,4.2-7.6C186.5,62.5,184.5,65.4,183.4,68.1z"/>
</g>
<g>
	<path class="st0" d="M26.4,92.3h0.7c1,0,1.5,1.6,1.7,4.7c0.1,1.3,0.1,2.3,0.1,2.9v0.2c0,0.1-0.2,0.4-0.7,0.8
		c-0.4,0-1.2-0.7-2.6-2.2c-2.2-0.4-3.5-0.7-3.9-0.7H21c-0.8,0-1.2,1.8-1.2,5.5c0.9,0.2,2.3,0.4,4.4,0.5c1.1-1,1.8-1.5,2-1.5
		c0.4,0,0.7,2,0.9,6c0,0.4-0.3,0.9-0.9,1.3l-2-1.3h-0.3c-2.7,0.4-4.1,0.8-4.1,1.2c-0.1,0.2-0.1,0.5-0.1,0.8v3.9c0,1,0.6,1.6,1.7,1.7
		h2.5c2.1,0,3.7-0.8,4.8-2.4l0.6-0.5c0.3,0.7,0.4,1.6,0.4,2.7v1.3c-0.2,2.3-0.7,3.5-1.4,3.5c-1.5,0-3.2-0.1-5.1-0.2
		c-5.9,0.4-9.2,0.7-10,0.7c-1.4-0.1-2-0.4-2-0.8V120c0-0.4,0.5-1.2,1.6-2.5c0.4,0,0.8-3.2,1.2-9.7c-0.3-7.9-0.7-11.9-1.2-11.9
		c-1.4-0.7-2.1-1.3-2.3-1.9v-0.3c0-0.3,0.5-0.6,1.4-0.8c2.4,0.2,3.7,0.3,3.9,0.3C21.9,92.8,25.5,92.6,26.4,92.3z"/>
	<path class="st0" d="M37.3,92.5h8.1c0.3,0,0.9,0.2,1.6,0.5v0.3c-1.1,1-1.6,1.8-1.6,2.4c0,0.5,0.1,1.5,0.2,3.1
		c-0.4,4.8-0.6,7.6-0.6,8.3c0,5.6,0.3,8.4,1,8.4c0.5,0.2,1.7,0.5,3.6,0.7c1.3,0,3.1-1,5.2-2.9h0.5l0.1,1.2v0.7
		c-0.3,3.9-0.7,5.9-1.3,5.9c-0.2,0.1-0.4,0.2-0.8,0.2c-2,0-5.8,0.1-11.6,0.2c-3.1-0.2-4.6-0.4-4.6-0.7v-0.5c0-0.5,0.6-1.6,1.8-3.1
		l0.2-1v-0.3c0-0.9-0.3-6.1-1-15.6v-2.9c0-1-0.6-2-1.8-3.1C36,93.9,36,93.7,36,93.4C36.4,92.8,36.8,92.5,37.3,92.5z"/>
	<path class="st0" d="M77.6,92.3h0.7c1,0,1.5,1.6,1.7,4.7c0.1,1.3,0.1,2.3,0.1,2.9v0.2c0,0.1-0.2,0.4-0.7,0.8
		c-0.4,0-1.2-0.7-2.6-2.2C74.7,98.3,73.4,98,73,98h-0.7c-0.8,0-1.2,1.8-1.2,5.5c0.9,0.2,2.3,0.4,4.4,0.5c1.1-1,1.8-1.5,2-1.5
		c0.4,0,0.7,2,0.9,6c0,0.4-0.3,0.9-0.9,1.3l-2-1.3h-0.3c-2.7,0.4-4.1,0.8-4.1,1.2c-0.1,0.2-0.1,0.5-0.1,0.8v3.9c0,1,0.6,1.6,1.7,1.7
		h2.5c2.1,0,3.7-0.8,4.8-2.4l0.6-0.5c0.3,0.7,0.4,1.6,0.4,2.7v1.3c-0.2,2.3-0.7,3.5-1.4,3.5c-1.5,0-3.2-0.1-5.1-0.2
		c-5.9,0.4-9.2,0.7-10,0.7c-1.4-0.1-2-0.4-2-0.8V120c0-0.4,0.5-1.2,1.6-2.5c0.4,0,0.8-3.2,1.2-9.7c-0.3-7.9-0.7-11.9-1.2-11.9
		c-1.4-0.7-2.1-1.3-2.3-1.9v-0.3c0-0.3,0.5-0.6,1.4-0.8c2.4,0.2,3.7,0.3,3.9,0.3C73.2,92.8,76.7,92.6,77.6,92.3z"/>
	<path class="st0" d="M99.3,92.4h0.2c1,0,3,0.3,5.9,1h0.4c0.4,0,1.2-0.3,2.5-1c0.8,1.9,1.2,3.9,1.2,6.1c-0.2,2.5-0.4,3.7-0.9,3.7
		c-2.6-2.9-5.1-4.4-7.3-4.4c-3,0-5.2,2.7-6.4,8.1c-0.1,0.8-0.2,1.4-0.2,1.9v1.3c0,4.2,1.9,6.7,5.6,7.6h0.4c2.1,0,4.4-1.3,6.9-3.9
		c0.5-1.5,0.9-2.2,1.2-2.2c0.6,0.2,0.9,0.7,0.9,1.3v4.6c-0.2,3.3-0.5,4.9-1,4.9c-0.9-0.6-1.6-0.8-1.9-0.8c-3.8,0.2-6.5,0.5-8.2,0.8
		c-2.2,0-4.7-1.3-7.5-3.9c-2.1-3.6-3.2-6.8-3.2-9.8v-1.5c0-6.6,2.5-11,7.6-13.2C96.5,92.7,97.9,92.4,99.3,92.4z"/>
	<path class="st0" d="M125.4,92.5c4,0.3,6.4,0.5,7.2,0.5c2.8-0.2,4.6-0.3,5.4-0.3h0.1c0.6,0.4,0.9,1,0.9,1.9v6
		c0,0.2-0.1,0.4-0.3,0.4h-0.4c-0.7,0-1.7-0.9-3.1-2.8l-1-0.2c-1.7,0.2-2.5,0.5-2.5,0.7l-0.6,10c0.2,6.8,0.6,10.1,1,10.1
		c0.6,0.8,0.9,1.4,0.9,1.7c-0.5,0.5-0.9,0.8-1.2,0.9c-1.3-0.2-2.5-0.3-3.6-0.3h-0.3c-1.1,0-2.9,0.1-5.4,0.3l-0.1-0.3
		c1.4-2.5,2.1-4.2,2.1-5.2c-0.1-2.5-0.2-7.9-0.3-16.3c-0.2-0.5-0.4-0.8-0.6-0.9h-1c-2.2,0-4.1,1.1-5.8,3.3c-0.2-0.4-0.3-0.9-0.3-1.4
		c0-1.1,0.1-3.5,0.2-7C116.5,93.1,119.4,92.8,125.4,92.5z"/>
	<path class="st0" d="M147.8,92.5c10.2,0.5,15.3,1,15.3,1.5c2.6,1,3.8,3.1,3.8,6.3c0.2,0.5,0.3,1.4,0.3,2.7c0,1.2-1.2,2.9-3.7,4.9
		c0.3,2.5,2.5,6.3,6.5,11.4v1.9c-6.9-0.1-10.3-0.5-10.3-1.2v-0.2c0-0.4,0.4-1.3,1.3-2.7c-1.1-2.1-3-4.3-5.6-6.6
		c-0.8,0.7-1.2,1.8-1.2,3.2v3.6c0,0.6,0.5,1.5,1.6,2.6v0.7c0,0.5-0.8,0.8-2.4,0.8h-3c-1,0-2.5-0.1-4.4-0.2l-0.3-0.5v-0.3
		c0-0.3,0.4-1.5,1.3-3.7c0.2-0.5,0.3-1.2,0.3-2.2v-10.7c0-1.1,0.1-2.5,0.2-4.1c0-1.6-0.8-3.2-2.5-4.8v-1
		C145.7,93,146.6,92.5,147.8,92.5z M153.3,98.7c0,1.6,0.1,3.7,0.3,6.1h0.1c3.2-0.9,4.7-2.4,4.7-4.4c-0.3-1.6-1.2-2.4-3-2.4h-1
		C153.7,98,153.3,98.2,153.3,98.7z"/>
	<path class="st0" d="M186.8,92.5h0.6c0.2,0,0.3,0.2,0.3,0.3v0.3c0,0.5-0.5,1.3-1.6,2.6c-0.1,0.6-0.1,1.1-0.1,1.4
		c0,14.4,0.4,21.7,1.3,21.7c0.5,0.9,0.8,1.5,0.8,1.9c-0.2,0.5-0.5,0.7-1,0.7h-7.6c-1.1,0-1.6-0.2-1.6-0.5v-0.5l1.6-4v-0.2
		c0-2.2-0.2-7.2-0.6-15.1c0.1-1.3,0.1-2.8,0.1-4.5c0-0.2-0.7-1.2-2.2-3.1v-0.3c0-0.2,0.3-0.4,0.9-0.5c2,0.1,3.3,0.2,4,0.2
		C184.1,92.6,185.9,92.5,186.8,92.5z"/>
	<path class="st0" d="M207,92.4h0.2c1,0,3,0.3,5.9,1h0.4c0.4,0,1.2-0.3,2.5-1c0.8,1.9,1.2,3.9,1.2,6.1c-0.2,2.5-0.4,3.7-0.9,3.7
		c-2.6-2.9-5.1-4.4-7.3-4.4c-3,0-5.2,2.7-6.4,8.1c-0.1,0.8-0.2,1.4-0.2,1.9v1.3c0,4.2,1.9,6.7,5.6,7.6h0.4c2.1,0,4.4-1.3,6.9-3.9
		c0.5-1.5,0.9-2.2,1.2-2.2c0.6,0.2,0.9,0.7,0.9,1.3v4.6c-0.2,3.3-0.5,4.9-1,4.9c-0.9-0.6-1.6-0.8-1.9-0.8c-3.8,0.2-6.5,0.5-8.2,0.8
		c-2.2,0-4.7-1.3-7.5-3.9c-2.1-3.6-3.2-6.8-3.2-9.8v-1.5c0-6.6,2.5-11,7.6-13.2C204.2,92.7,205.5,92.4,207,92.4z"/>
	<path class="st0" d="M234.6,92.5h0.6c0.2,0,0.3,0.2,0.3,0.3v0.3c0,0.5-0.5,1.3-1.6,2.6c-0.1,0.6-0.1,1.1-0.1,1.4
		c0,14.4,0.4,21.7,1.3,21.7c0.5,0.9,0.8,1.5,0.8,1.9c-0.2,0.5-0.5,0.7-1,0.7h-7.6c-1.1,0-1.6-0.2-1.6-0.5v-0.5l1.6-4v-0.2
		c0-2.2-0.2-7.2-0.6-15.1c0.1-1.3,0.1-2.8,0.1-4.5c0-0.2-0.7-1.2-2.2-3.1v-0.3c0-0.2,0.3-0.4,0.9-0.5c2,0.1,3.3,0.2,4,0.2
		C231.9,92.6,233.6,92.5,234.6,92.5z"/>
	<path class="st0" d="M248.8,92.5c5.8,0.1,10,0.4,12.3,0.7v0.3c-1,1.3-1.5,2-1.5,2.1v0.7c0.1,2.9,2.4,10.1,7,21.5
		c1,0.9,1.5,1.5,1.5,1.8c0,0.7-0.6,1.1-1.7,1.2h-8.2c-0.1,0-0.3-0.2-0.5-0.5c0.7-1.7,1.1-2.7,1.1-3v-0.2c0-1.8-0.7-2.7-2.1-2.7h-2.1
		c-3.6,0-5.5,0.9-5.5,2.8v0.3c0,0.7,0.3,1.6,0.9,2.7c-0.6,0.5-2.4,0.7-5.3,0.7h-1.5l-1.5,0.2l-0.2-0.4c0-0.7,1-2,3-4
		c2.4-8.5,4.4-15.6,5.8-21.6c-1.1-0.7-1.7-1.6-1.7-2.7C248.8,92.7,248.8,92.7,248.8,92.5z M253.7,104.2l-1.4,4.4
		c0.2,0.6,0.6,0.9,1.2,0.9h0.9c0.5,0,0.9-0.2,1.1-0.7c-0.1-1-0.6-2.5-1.7-4.6H253.7z"/>
	<path class="st0" d="M273.7,92.5h0.6c0,0.3,2.7,0.8,8.1,1.3c0,0.1,0,0.2,0.1,0.2c-0.2,0.5-0.7,1.3-1.3,2.4c3,4,6,7.4,9.3,10.2h0.3
		c0-0.4,0-1.8,0.1-4.2c0-4.8-0.6-7.6-1.9-8.6v-0.3c0.9-0.5,2.3-0.7,4.3-0.7h0.6c2.4,0,4.1,0.3,5.1,0.8c-1.3,2-1.9,3.4-1.9,4.1
		c-0.3,8.7-0.5,14-0.5,15.9c0,1.7,0.8,3.7,2.4,5.9v0.3c-0.3,0.9-2.4,1.3-6.2,1.3h-2.9c-0.5-0.3-0.8-0.7-0.8-1.3c0-0.2,0.5-0.9,1.5-2
		c-0.9-0.8-3.8-4.2-8.7-10.3c-0.1,0-0.6-0.3-1.6-1l-0.2,0.3v2.4c0,5.9,0.7,9.6,2.1,11v0.3c-0.5,0.7-2,1-4.3,1h-0.7
		c-2.2-0.1-3.5-0.4-3.7-1v-0.2c0-0.4,0.6-2.3,1.8-5.8l0.3-2.7c-0.3-10.4-0.9-15.6-1.8-15.6c-0.9-1.1-1.3-2-1.3-2.5v-0.3
		C272.8,92.8,273.2,92.5,273.7,92.5z"/>
	<path class="st0" d="M312.5,92.5h1.1c0.5,0,2,0.2,4.6,0.6h1.4c0.3,0,1-0.1,2-0.3c0.2,0,0.5,2.5,0.7,7.6c-0.2,0.7-0.5,1-0.9,1
		c-0.2,0-1.1-1.1-2.8-3.1c-1.3-0.5-2.6-0.8-3.9-0.8h-0.9c-1.9,0.2-2.8,0.9-2.8,2.1v0.6c0,1.5,1.9,2.6,5.7,3.5c3.8,1.8,6,3.5,6.6,5.1
		c0.5,2,0.7,3.4,0.7,4.3v1c0,2.6-2.3,5-7,7.4h-0.1c-1,0-3.9-0.4-8.7-1.3c-1.6,0.5-2.5,0.8-2.9,0.8c-0.7-2.5-1-5.2-1-7.9v-1
		c0-0.8,0.2-1.4,0.7-1.6h0.1c0.5,0,1.3,0.9,2.3,2.6c3.3,2.5,5.8,3.8,7.4,3.8c2.1-0.5,3.1-1.4,3.1-2.5V114c-0.6-2.7-1.8-4.1-3.6-4.1
		c-5.8-1.2-8.7-2.9-8.7-5.3c-0.6-1.1-0.9-2.5-0.9-4.1c0-1.5,0.9-3.5,2.8-6.3C309.4,93.1,310.9,92.5,312.5,92.5z"/>
</g>
<g>
	<path class="st0" d="M83.4,76.4c6.8-5,13.7-9.8,20.6-14.7c6.9-4.9,13.8-9.7,20.7-14.5c13.8-9.6,27.7-19.2,41.7-28.7L167,18l0.8,0.5
		l21.3,14.6c7.1,4.9,14.2,9.8,21.3,14.7c7.1,4.9,14.1,9.9,21.2,14.8c7,5,14.1,10,21,15.1c-7.3-4.6-14.5-9.3-21.8-14
		c-7.2-4.7-14.4-9.4-21.6-14.2c-7.2-4.7-14.3-9.6-21.5-14.3l-21.4-14.5h1.5c-14,9.4-27.9,18.9-42,28.1c-7,4.7-14.1,9.3-21.1,13.9
		C97.5,67.3,90.5,71.9,83.4,76.4z"/>
</g>
<g>
	<path class="st0" d="M257.7,138.5c-5.2,3.8-10.5,7.3-15.9,10.8c-5.4,3.5-10.8,6.8-16.3,10.2l-8.2,4.9c-2.8,1.6-5.5,3.2-8.3,4.8
		c-5.6,3.1-11.2,6.2-16.9,9.1c5.2-3.8,10.5-7.3,15.9-10.8c2.7-1.8,5.4-3.4,8.1-5.1l8.2-5c5.5-3.3,11-6.5,16.6-9.7
		C246.4,144.4,252,141.3,257.7,138.5z"/>
</g>
<g>
	<path class="st0" d="M75.8,138.5c5.7,2.9,11.4,5.9,16.9,9.1c5.6,3.1,11.1,6.4,16.6,9.7l8.2,5c2.7,1.7,5.4,3.4,8.1,5.1
		c5.4,3.5,10.7,7,15.9,10.8c-5.7-2.9-11.4-5.9-16.9-9.1c-2.8-1.6-5.5-3.2-8.3-4.8l-8.2-4.9c-5.5-3.3-10.9-6.7-16.3-10.2
		C86.3,145.8,81,142.3,75.8,138.5z"/>
</g>
<path class="st1" d="M168,162.2c0,0,4.2-20.4-16.4-21.4s-16.5,4.5-12.6,5.6c4.3,1.3,42.2-0.7,41.5-19.6"/>
<g id="bBbXRd_1_">
	<g>
		<g>
			<path class="st0" d="M170.3,161.4c0,0.6,0.2,0.9,0.8,1c1.7,0.3,2.1,0.7,2.1,2.5c0,2.3,0,4.6,0,6.9c0,1.5,0,3,0,4.5
				c0,1.2,0.4,2.2,1.2,3.2c0.7,0.9,1.2,1.9,1.5,3c1.3,4.9,2.5,9.8,3.6,14.8c0.2,0.7,0.4,1.1,1.1,1c0.8,0,1.1,0.5,1.1,1.2
				c0,1.5,0,3,0,4.6c0,0.8-0.1,1.7,0,2.5c0.1,0.9,0,1.6-1.2,1.6c-0.1,0-0.4,0.4-0.4,0.6c0.1,1.3-0.7,1.8-1.7,2c-0.8,0.2-1,0.6-1,1.4
				c0.1,3.3,0,6.5,0,9.8c0,0.4,0,0.9-0.1,1.3c-0.1,1-0.9,1.7-1.8,1.7c-1,0-1.9-0.8-1.9-1.8c-0.1-2.5,0-5-0.1-7.6c0-1.2,0-2.4,0-3.7
				c-1.1,0.1-2.1,0.2-3.1,0.3c-1.3,0.1-1.5,0-1.6-1.4c0-0.4-0.2-1-0.3-1c-0.7-0.1-1.4-0.1-2.1,0c-0.1,0-0.2,0.7-0.2,1.1
				c0,1.3-0.1,1.3-1.3,1.3c-1.3-0.1-2.5-0.2-3.9-0.3c0,0.2-0.1,0.5-0.1,0.7c0,3.3,0,6.7,0,10c0,1.7-1.3,2.8-2.7,2.2
				c-0.4-0.2-0.8-0.7-0.9-1.1c-0.2-0.8-0.2-1.7-0.2-2.5c0-3.1,0-6.3,0.1-9.4c0-0.6-0.2-0.9-0.8-1.1c-1-0.3-1.7-0.7-1.5-1.9
				c0-0.2-0.3-0.5-0.6-0.6c-0.4-0.1-0.8-0.1-1.4-0.1c0-2.3,0-4.5,0-6.7c0-0.5,0.1-0.9,0.1-1.4c0-1.4,0-1.4,1.3-1.7
				c0.3-0.1,0.6-0.4,0.6-0.7c1.4-5.3,2.7-10.6,4.1-15.9c0.3-1.1,1.2-2.1,1.8-3.1c0.3-0.5,0.6-1.1,0.6-1.7c0.1-3.6,0.1-7.2,0.1-10.8
				c0-0.1,0-0.2,0-0.4c0-2.4,0.2-2.7,2.6-3.1c1.3-0.2,1.3-0.2,1.1-1.5 M176.7,218.1c0.1-0.2,0.2-0.3,0.3-0.5
				c-0.2-0.1-0.3-0.2-0.5-0.2c-0.6,0.1-1.2,0.3-1.8,0.5c0,0.1,0,0.1,0,0.2C175.3,218.1,176,218.1,176.7,218.1
				c-0.6,0.1-1.2,0.3-1.8,0.4c0,0.1,0,0.1,0,0.2c0.6,0,1.2,0,1.9,0c-0.6,0.2-1.2,0.3-1.8,0.5c0.4,0.1,0.8,0.2,1.2,0.3
				c-0.4,0.1-0.8,0.2-1.1,0.3c0,0.1,0,0.1,0,0.2c0.4,0,0.8,0.1,1.2,0.1c-0.5,0.1-0.9,0.2-1.5,0.4c0.5,0.1,0.8,0.2,1.1,0.3
				c0,0,0,0.1,0,0.1c-0.4,0-0.8,0.1-1.2,0.1c0,0.1,0,0.2,0,0.2c0.7,0,1.3,0,2,0c-0.6,0.2-1.2,0.3-1.9,0.5c0.3,0.1,0.6,0.2,1.2,0.4
				c-0.6,0.1-0.9,0.1-1.2,0.1c0,0.1,0,0.1,0,0.2c0.5,0,1.1,0.1,1.6,0.1c-0.6,0.1-1.2,0.2-1.9,0.3c0.5,0.2,0.8,0.3,1.5,0.6
				c-0.5,0.1-0.7,0.1-1.2,0.1c0.7,0.2,1.2,0.5,1.6,0.3c0.4-0.1,0.5-0.7,0.8-1.3c-0.4,0-0.6,0-0.8,0c0.8-0.4,0.9-0.7,0.4-1.4
				c0.4-0.5,0.4-2,0.1-2.6C176.7,218.5,176.7,218.3,176.7,218.1z M160.2,222.5c0.6-1,0.3-2.1,0.3-3.2c-0.7,0.2-1.3,0.3-2,0.5
				c0.3,0.1,0.6,0.2,0.9,0.3c0,0,0,0.1,0,0.1c-0.3,0-0.7,0.1-1,0.1c0,0,0,0.1,0,0.1c0.3,0.1,0.5,0.2,1,0.3c-0.5,0.1-0.8,0.1-1.1,0.2
				c0,0.1,0,0.1,0,0.2c0.4,0.1,0.8,0.2,1.3,0.2c0,0,0,0.1,0,0.1c-0.4,0-0.8,0.1-1.5,0.2c0.6,0.2,1,0.3,1.5,0.5
				c-0.6,0.1-1,0.1-1.3,0.1c0,0.1,0,0.1,0,0.2C158.9,222.5,159.6,222.5,160.2,222.5c-0.6,0.2-1.1,0.3-1.8,0.5c0.4,0.1,0.7,0.2,1,0.3
				c-0.3,0.1-0.5,0.1-0.7,0.1c0,0.1,0,0.2,0,0.3c0.4,0,0.9,0,1.3-0.1C160.7,223.4,160.7,223,160.2,222.5z M167.9,163.7
				c0.2-0.1,0.2-0.1,0.2-0.1c0-0.7,0.1-1.4,0.1-2.1c0.1,0.1,0.1,0.3,0.1,0.4c0.2,1.9,0.2,1.9,2,2.1c0.1,0,0.2,0,0.2,0.1
				c-1,0.1-1.8,0.1-2.7,0c-0.6-0.1-1.1-0.2-1.7-0.3c-1.1-0.3-2.2-0.5-3.3,0c0,0.1,0,0.2,0,0.3c1,0,2,0,3,0c0,0.1,0,0.1,0,0.2
				c-0.7,0.1-1.5,0.2-2.2,0.2c0,0.1,0,0.2,0,0.3c1.1,0.2,2.2,0.4,3.3,0.5c0,0,0,0.1,0,0.1c-1.1,0-2.2,0-3.3,0c0,0.1,0,0.2,0,0.3
				c1.2,0.2,2.5,0.3,3.7,0.5c0,0.1,0,0.1,0,0.2c-1.1,0-2.3,0-3.4,0c0,0.1,0,0.2,0,0.3c1.4,0.1,2.8,0.3,4.2,0.4c0,0.1,0,0.1,0,0.2
				c-1.4,0-2.8,0-4.2,0c0,0.1,0,0.2,0,0.3c1.3,0.2,2.6,0.3,3.9,0.5c0,0.1,0,0.1,0,0.2c-1.2,0-2.5,0-3.7,0c0,0.1,0,0.2,0,0.3
				c1.5,0.1,3,0.2,4.5,0.4c0,0,0,0.1,0,0.1c-1.5,0.1-3,0.1-4.6,0.2c0,0.1,0,0.2,0,0.2c1.5,0.1,3,0.3,4.2,0.4c-0.1,0-0.4,0.1-0.7,0.3
				c0,0.1,0,0.2,0.1,0.3c1.6,0,3.3,0.1,4.8-0.8c0.2-0.1,0.3-0.5,0.3-0.7c0-1.4,0-2.9,0-4.3c0-1.6-1.1-1.9-2.5-1.3
				c0.4,0.1,0.7,0.1,1.1,0.2c-1.9,0.1-1.9,0.1-2-0.2c0.1,0,0.3,0.1,0.5,0c0.1,0,0.1-0.3,0.1-0.4c0-0.2-0.2-0.4-0.2-0.7
				c-0.1-1-0.1-2-0.3-2.9 M167,161.8c0.1,0.5,0.1,1.1,0.2,1.6 M165.5,204.7c-2.9,0.3-5.7-0.2-8.5-0.6c1.4,0.4,2.8,0.7,4.2,0.9
				c1.4,0.2,2.8,0.4,4.1,0.6c0,0.1,0,0.3-0.1,0.4c-2.9-0.4-5.7-0.7-8.6-1.1c2.8,1,5.8,1.1,8.7,1.7c-2.9,0.1-5.8-0.3-8.6-0.9
				c3,1.1,6.1,1.3,9.3,1.7c0-1.8,0-3.5,0-5.2c0-0.6-0.1-1.1-0.7-1.4c-0.2-0.1-0.3-0.4-0.4-0.6c1.5,0.3,1.4,1.6,1.5,2.7
				c0.5-0.4,0.8-0.8,1.3-1.2c-0.2-0.1-0.3-0.2-0.5-0.3c0.5-0.1,1-0.3,1.7-0.5c-0.7-0.2-1.1-0.3-1.6-0.4c0,0,0-0.1,0-0.1
				c0.6-0.1,1.2-0.1,1.7-0.2c0-0.1,0-0.1,0-0.2c-0.6-0.1-1.2-0.3-1.9-0.4c0,0,0-0.1,0-0.1c1-0.1,1.9-0.1,2.8-0.1
				c0.2,0.8,0.3,1.4-0.5,1.8c-0.4,0.2-0.1,1.5,0.4,1.7c0,0,0,0.1,0,0.1c-0.2,0.2-0.4,0.3-0.8,0.7c0.7,0.1,1.1,0.2,1.3,0.2
				c-0.2,0.1-0.6,0.4-1,0.6c0.4,0.2,0.8,0.3,1,0.4c-0.2,0.1-0.7,0.3-1.1,0.4c0,0.1,0,0.2,0,0.3c0.5,0.1,1,0.1,1.3,0.2
				c-0.4,0.1-0.8,0.2-1.1,0.3c0,0.6,0,1,0,1.5c0.4,0,0.8,0,1.6,0c-0.8,0.2-1.3,0.4-1.8,0.5c0,0.1,0,0.2,0,0.3
				c0.2,0.1,0.5,0.3,0.7,0.4c-0.2,0.1-0.5,0.3-0.8,0.4c0.3,0.2,0.4,0.4,0.6,0.5c-0.2,0.2-0.4,0.3-0.6,0.5c0.1,0,0.2,0.1,0.3,0.1
				c0,0.3,0,0.7-0.1,1.1c0.3,0,0.7,0.1,1,0.1c2.8-0.5,5.5-1,8.3-1.5c0.3-0.1,0.6-0.6,0.8-1c0.1-0.3,0-0.6,0-0.9
				c-0.1-3.8,0.4-7.6-0.6-11.3c-1.3-5-2.4-10-3.7-14.9c-0.3-1.1-1.1-2-1.6-3c-0.1,0-0.2,0.1-0.3,0.1c0,1-0.1,2,0,3
				c0.1,0.9-0.3,1.2-1.1,1.2c-1.2,0-2.4,0-3.6-0.1c-2.4-0.1-4.8-0.2-7.2-0.3c-0.1,0-0.2,0.2-0.5,0.5c4.2,0,8.3,0,12.4,0.1
				c-2.1,0.1-4.2,0-6.3,0.1c-2.1,0.1-4.1,0-6.2,0.3c0,0.1,0,0.3,0,0.4c4.2,0,8.4,0,12.6,0.1c-0.3,0.2-0.7,0.1-1,0.1
				c-3.5,0-7.1,0.1-10.6,0.1c-0.4,0-0.8,0.2-1.2,0.3c0,0.1,0,0.3,0.1,0.4c4.2,0.4,8.5-0.4,12.7,0.1c-0.5,0.1-1,0.1-1.6,0.1
				c-3.4,0-6.8,0.1-10.3,0.1c-0.4,0-0.8,0.2-1.2,0.3c0,0.1,0,0.2,0,0.3c4.5,0,9.1,0.1,13.6,0.1c-0.2,0.1-0.4,0.1-0.5,0.1
				c-4,0-8,0.1-12,0.1c-0.4,0-0.9,0.2-1.3,0.3c0,0.1,0,0.2,0,0.3c4.3,0,8.6,0,13,0.1c0,0.1,0,0.2,0,0.3c-3.9,0-7.9-0.1-11.8-0.1
				c-0.5,0-1,0.2-1.4,0.2c0,0.1,0,0.2,0,0.3c4.7,0,9.4,0.1,14.1,0.1c-4.3,0.2-8.5,0.2-12.8,0.3c-0.5,0-1,0.2-1.5,0.3
				c0,0.1,0,0.2,0.1,0.3c2.4,0,4.8,0,7.2,0c2.4,0,4.8,0,7.2,0c0,0.1,0,0.2,0,0.2c-1.1,0-2.2,0-3.2,0c-3.4,0.1-6.9,0.1-10.3,0.2
				c-0.4,0-0.7,0.1-1.1,0.2c0,0.1,0,0.2,0,0.4c5-0.1,10-0.1,15-0.2c0,0.1,0,0.2,0,0.3c-4.8,0.1-9.6,0.1-14.4,0.2
				c-0.4,0-0.8,0.2-1.2,0.2c0,0.1,0,0.2,0,0.3c4.8,0,9.7,0.1,14.5,0.1c-0.4,0.1-0.8,0.1-1.3,0.1c-4.1,0.1-8.1,0.1-12.2,0.2
				c-0.4,0-0.8,0.2-1.2,0.3c0,0.1,0,0.2,0.1,0.3c1,0.1,2.1,0.2,2.9,0.2c-1,0.1-2.2,0.3-3.3,0.4c0,0.1,0,0.3,0,0.4
				c5.6-0.1,11.2-0.1,16.8-0.2c0,0.1,0,0.2,0,0.3c-0.5,0-1,0-1.5,0c-4.8,0.1-9.5,0.1-14.3,0.2c-0.5,0-0.9,0.2-1.4,0.3
				c0,0.1,0,0.1,0,0.2c5.8,0,11.5,0.1,17.3,0.1c-0.3,0.1-0.6,0.2-0.9,0.2c-1.1,0-2.1,0-3.2,0c-4.1,0.1-8.1,0.1-12.2,0.2
				c-0.4,0-0.7,0.2-1.1,0.3c0,0.1,0.1,0.3,0.1,0.4c5.7-0.1,11.5-0.2,17.2-0.2c-0.6,0.2-1.3,0.2-1.9,0.2c-3.6,0.1-7.1,0.2-10.7,0.1
				c-2.2,0-4.3,0.5-6.5-0.1c0.6,0.3,1.1,0.6,1.9,1c-0.3,0.2-0.6,0.3-0.8,0.5c0,0.1,0.1,0.2,0.1,0.4c6.2-0.1,12.4-0.2,18.6-0.3
				c-0.4,0.2-0.8,0.3-1.2,0.3c-5.3,0.1-10.6,0.1-15.8,0.2c-0.6,0-1.3,0.2-1.9,0.3c0,0.1,0,0.2,0,0.4c6.2-0.1,12.3-0.1,18.5-0.2
				c-1,0.2-1.9,0.3-2.9,0.3c-4.9,0-9.9,0.1-14.8,0.1c-0.3,0-0.6,0.2-1,0.3c0,0.1,0,0.2,0,0.4c1.4,0,2.8,0,4.2,0c0,0.1,0,0.1,0,0.2
				c-1.4,0.1-2.7,0.1-4.1,0.2c0,0.1,0,0.3,0,0.4c3,0.2,5.9-0.7,8.9-0.6c-0.6,0-1.2,0-1.8,0c0,0,0-0.1,0-0.1c4.4,0.3,8.7,0.7,13.2,1
				c0.1-0.1,0.2-0.3,0.4-0.6c-0.2,1-0.3,1-1.6,0.9c-3.4-0.3-6.8-0.5-10.2-0.7c-1.2-0.1-2.4,0.2-3.7,0.3c-1.4,0.1-2.8,0.2-4.2,0.4
				c-0.6,0.1-1.1,0.3-1.7,0c-0.4-0.2-1.4,0.1-1.7,0.5c-0.3,0.5,0.3,1,0.9,1.2c1,0.3,2,0.7,3,0.8c2,0.3,4,0.6,6,0.9
				c0,0.1,0,0.2,0,0.2c-1.6-0.1-3.2-0.2-4.8-0.4c-1.5-0.2-3.1-0.6-4.6-0.9c3,1.4,6.4,1.4,9.6,2.1c0,0.1,0,0.2,0,0.3
				c-2.8-0.3-5.6-0.7-8.4-1C159.7,204.1,162.6,204.2,165.5,204.7z M162.9,181c0,0.1,0,0.3-0.1,0.4c0.4,0.1,0.8,0.3,1.3,0.3
				c2.1,0,4.2,0,6.2,0c0.8,0,1.5-0.1,2.1,0.7c0.1,0.1,0.4,0.1,0.7,0.2c0-0.8,0-1.5,0-2.2c0-2.7-0.1-2.7-2.8-2.6
				c-1.9,0.1-3.7,0-5.6,0c-0.9,0-1.8,0-2.6,0c0,0.1-0.1,0.3-0.1,0.4c0.3,0.3,0.9,0.6,1,0.9c0.1,1.1,0.8,0.8,1.5,0.9
				c2.3,0,4.5,0,6.8,0c0,0.1,0,0.2,0,0.3c-2.7,0-5.4,0-8.1,0c0,0.2,0,0.3,0,0.5c2.8,0.4,5.7-0.1,8.5,0.1c0,0.1,0,0.2,0,0.3
				C168.7,181,165.8,181,162.9,181z M166,207.9c-3.4-0.4-6.5-0.8-9.7-1.2c0,0.1,0,0.2,0,0.2c3,0.5,6,1,9.1,1.5c0,0.1,0,0.2,0,0.2
				c-2.2-0.2-4.3-0.4-6.5-0.6c0,0.1,0,0.1,0,0.2c2.1,0.3,4.2,0.7,6.3,1c-3,0.2-5.9-0.3-8.8-0.9c0,0.1,0,0.2-0.1,0.3
				c3,0.5,5.9,1,8.9,1.5c0,0.1,0,0.2,0,0.3c-2.7-0.3-5.3-0.6-8-0.9c0,0.1,0,0.1,0,0.2c2.9,0.5,5.8,1,8.8,1.5c0-0.3,0.1-0.6,0.1-0.9
				C166,209.6,166,208.7,166,207.9z M163.9,176.7c0.2,0.1,0.3,0.2,0.3,0.2c2.4,0.5,4.9,0.6,7.4,0.2c0.3,0,0.6-0.1,0.8-0.3
				c0.2-0.2,0.4-0.6,0.4-0.9c0-0.2-0.4-0.4-0.7-0.4c-0.5,0-1,0.1-1.6,0.2c-1,0.2-2,0.6-3,0.7C166.4,176.6,165.2,176.6,163.9,176.7z
				 M168.2,172c0,0.1,0,0.2,0,0.2c-1.4,0-2.7,0-4.1,0c0,0.1,0,0.2,0,0.3c2.2,0,4.5,0.1,6.7,0c0.6,0,1.1-0.3,1.7-0.5
				c0.2-0.1,0.3-0.4,0.3-0.6c0-0.2-0.3-0.5-0.5-0.5c-0.5,0-1.1,0.1-1.6,0.2c-1.5,0.3-2.9,0.9-4.4,0.7c0,0-0.1,0-0.2,0.1
				C166.9,172,167.5,172,168.2,172z M164.1,174.6c2.8,0.6,5.6,0.8,8.4-0.3c0.2-0.1,0.3-0.5,0.5-0.9c-1.7,0.3-3.1,0.6-4.6,0.8
				C167,174.4,165.5,174.5,164.1,174.6z M181.1,200.7c0.1-0.4,0.3-0.7,0.3-1c-0.1-0.8-0.6-1.3-1.5-1.2c0,0.4,0,0.7,0,1.1
				c0.3,0.1,0.6,0.1,1.2,0.2c-0.5,0.1-0.8,0.1-1.1,0.2c0.1,0.8,0.1,1.6,0.2,2.4c0.4,0,0.8,0,1.3,0
				C181.3,201.7,181.9,201,181.1,200.7z M174.6,212.8c0.6,0.1,1,0.2,1.5,0.4c-0.5,0.1-0.8,0.2-1.1,0.3c0,0.1,0,0.1,0,0.2
				c0.4,0,0.9,0.1,1.3,0.1c0,0,0,0.1,0,0.1c-0.5,0.1-1.1,0.1-1.7,0.2c2.2,0.7,2.6,0.4,2.3-1.6C176.2,212.5,175.5,212.7,174.6,212.8z
				 M179.9,205c1.4,0.2,1.5,0.2,1.5-1c0-0.5,0-0.9,0-1.6c-0.5,0.2-0.9,0.3-1.4,0.4c0.3,0.2,0.5,0.3,0.6,0.4
				c-0.1,0.1-0.4,0.3-0.7,0.5c0.2,0.2,0.3,0.4,0.5,0.5C180.4,204.5,180.2,204.7,179.9,205z M181.3,207.5c0-0.8,0.1-1.4,0.1-2.3
				c-0.6,0.1-1,0.2-1.4,0.3c0.2,0.2,0.3,0.5,0.5,0.6c-0.1,0.1-0.3,0.3-0.5,0.5c0.2,0.2,0.4,0.3,0.5,0.4c-0.1,0.1-0.3,0.2-0.7,0.5
				C180.5,207.5,180.9,207.5,181.3,207.5z M167.3,170.5c0-0.1,0-0.2,0-0.3c-0.9,0-1.8,0-2.8,0c0,0.1,0,0.1,0,0.2
				C165.4,170.4,166.4,170.4,167.3,170.5z M177,216.3c-0.8,0.1-1.5,0.2-2.3,0.3C175.5,216.9,176.3,217.1,177,216.3z"/>
			<path class="st0" d="M159.2,195.4c5,0,9.9,0.1,14.9,0.1c0,0,0,0.1,0,0.1C169.1,195.5,164.1,195.5,159.2,195.4
				C159.2,195.4,159.2,195.4,159.2,195.4z"/>
			<path class="st0" d="M175,191.8c-2.7,0-5.5,0-8.2,0c0,0,0-0.1,0-0.1c2.7,0,5.5,0,8.2,0C175,191.7,175,191.7,175,191.8z"/>
			<path class="st0" d="M172,198.3c-1.3,0-2.5,0-3.8,0c0,0,0,0,0,0C169.5,198.2,170.7,198.2,172,198.3
				C172,198.2,172,198.2,172,198.3z"/>
		</g>
	</g>
</g>
</svg>
